PathFileType	4	(X/Y/Z)	s05c0203.trc
DataRate	CameraRate	NumFrames	NumMarkers	Units	OrigDataRate	OrigDataStartFrame	OrigNumFrames
200	200	4	47	mm	200	1500	2000
Frame#	Time	racr			lacr			c7			jug			rlel			rdr			llel			ldr			s2			lic			ric			lasi			rasi			rpsi			lpsi			rgt			lgt			rth1			rth2			rth3			rth4			rlfc			rsh1			rsh2			rsh3			rsh4			rlmal			rcal			rtoe			rmt5			lth1			lth2			lth4			lth3			llfc			lmfc			lsh1			lsh2			lsh3			lsh4			llmal			lcal			ltoe			lmt5			SBIKE			LBIKE			RBIKE			
		X1	Y1	Z1	X2	Y2	Z2	X3	Y3	Z3	X4	Y4	Z4	X5	Y5	Z5	X6	Y6	Z6	X7	Y7	Z7	X8	Y8	Z8	X9	Y9	Z9	X10	Y10	Z10	X11	Y11	Z11	X12	Y12	Z12	X13	Y13	Z13	X14	Y14	Z14	X15	Y15	Z15	X16	Y16	Z16	X17	Y17	Z17	X18	Y18	Z18	X19	Y19	Z19	X20	Y20	Z20	X21	Y21	Z21	X22	Y22	Z22	X23	Y23	Z23	X24	Y24	Z24	X25	Y25	Z25	X26	Y26	Z26	X27	Y27	Z27	X28	Y28	Z28	X29	Y29	Z29	X30	Y30	Z30	X31	Y31	Z31	X32	Y32	Z32	X33	Y33	Z33	X34	Y34	Z34	X35	Y35	Z35	X36	Y36	Z36	X37	Y37	Z37	X38	Y38	Z38	X39	Y39	Z39	X40	Y40	Z40	X41	Y41	Z41	X42	Y42	Z42	X43	Y43	Z43	X44	Y44	Z44	X45	Y45	Z45	X46	Y46	Z46	X47	Y47	Z47	
1500	7.5000	487.558292	1274.572349	-175.369917	486.412741	1249.039617	-426.348160	462.141682	1343.983472	-309.701414	402.197621	1193.603410	-292.877094	503.929776	1101.053593	48.343700	663.090584	956.918822	-53.844152	515.883618	1089.742531	-669.119073	661.692355	971.473632	-494.434984	-120.908243	1183.846830	-260.657256	5.751574	1198.276943	-409.527388	39.213756	1199.199140	-128.600021	52.940094	1149.997245	-371.825815	76.793654	1136.152734	-159.270417	-83.337019	1231.791925	-219.327147	-90.986465	1237.511366	-303.838332	-24.225382	1058.294449	-103.952578	-37.812640	1119.109939	-441.747187	35.913277	955.018355	-89.904080	89.331092	883.748883	-89.355722	99.574591	796.406003	-96.626595	122.657792	897.818339	-96.799076	166.328701	661.145045	-119.301238	112.844275	567.532321	-90.222101	112.992216	479.249345	-101.780910	72.853621	403.431532	-104.488657	142.503271	474.724158	-125.794884	50.997384	268.613771	-110.191617	-21.357853	250.067547	-157.069698	260.485201	156.359754	-156.100760	157.238962	158.487406	-90.387619	86.127366	1066.238650	-448.295577	171.628806	1075.265689	-441.214680	177.780498	1107.009721	-421.475604	253.757919	1037.281695	-444.303459	390.437219	979.558278	-406.983894	377.131227	957.101172	-295.064588	319.844685	884.415459	-430.823199	293.876041	801.207498	-428.871637	228.219455	741.323512	-433.044896	321.868041	783.850904	-409.614022	168.185292	623.972567	-434.478538	96.658900	606.663125	-395.248744	360.984205	477.960532	-402.066893	251.630181	495.673262	-464.512330	-265.221634	891.801348	-285.257599	-53.514480	79.431711	-474.706250	-53.470359	79.247334	-77.110095	
1501	7.5050	488.603925	1273.490114	-176.735455	485.658729	1248.159094	-427.105524	462.430512	1343.342101	-310.648678	402.057598	1193.122250	-293.799640	504.436131	1101.984530	48.728544	662.638706	956.738706	-52.847772	516.144378	1089.067410	-670.061063	661.872063	971.337730	-494.911175	-121.025109	1185.376248	-259.761527	5.489068	1199.930883	-409.385645	39.175311	1199.342858	-128.395310	52.289788	1150.857756	-372.164979	76.594480	1136.397821	-159.121912	-83.074221	1232.920168	-219.130203	-91.021672	1239.041515	-303.445964	-23.929442	1058.864736	-104.075460	-38.324550	1120.547630	-441.399289	38.886649	955.996908	-90.615633	94.193085	886.170065	-90.892397	106.398881	799.055799	-97.626748	126.876377	900.999208	-99.519967	174.152807	664.792043	-119.777227	117.680802	572.636094	-90.774600	114.976490	484.411282	-102.376380	72.415906	409.892007	-105.221326	144.408694	478.835883	-126.277969	46.117580	275.641006	-110.854873	-26.692912	260.043107	-158.307330	251.587084	156.307182	-155.462107	148.062198	162.179726	-90.630549	85.417835	1066.255323	-448.954042	171.019517	1074.070771	-441.715623	177.596431	1105.634151	-421.844677	252.668443	1034.942536	-444.931468	388.238942	975.075032	-407.987888	375.153029	952.299760	-296.324448	317.788933	878.557567	-432.019460	292.944735	795.005131	-429.911306	228.189094	734.298394	-434.074180	321.203928	777.908421	-410.674112	170.372416	615.769077	-435.560464	99.035069	594.933830	-396.052869	369.634157	480.058979	-402.404261	259.569320	491.540304	-465.120641	-265.345578	891.833176	-285.325703	-53.508336	79.407514	-474.734262	-53.486213	79.295151	-77.112943	
1502	7.5100	489.588245	1272.328370	-177.923253	486.713103	1247.557469	-428.529856	462.717626	1342.841059	-311.489484	403.371798	1192.109512	-295.453845	504.776663	1102.805887	49.156871	662.268038	956.579699	-51.630728	516.319510	1088.565697	-670.816282	662.035973	971.062219	-495.454482	-121.243039	1186.614890	-259.721691	5.204852	1201.453903	-409.259043	39.188963	1199.443938	-128.243856	51.876089	1151.450164	-372.607781	76.535857	1136.671161	-159.039371	-82.966181	1233.962638	-218.808983	-91.151590	1240.236970	-302.840444	-23.496823	1059.621410	-104.169350	-38.940782	1121.651892	-440.995508	42.381528	957.169395	-91.410661	99.591192	888.946802	-92.462311	113.979122	802.179472	-98.657138	131.585384	904.523356	-102.370211	182.709085	668.831389	-120.287283	123.365116	578.184519	-91.160063	117.782402	490.140808	-102.708259	72.825504	416.985194	-105.572194	146.958962	483.557977	-126.711845	41.794892	283.735545	-111.028868	-31.265981	270.728906	-159.169741	242.777458	156.523101	-155.277837	139.433300	166.548447	-90.941986	84.719739	1065.731903	-449.767866	170.907101	1072.678840	-443.987299	177.565587	1103.534067	-422.377068	251.478047	1031.594336	-445.419155	384.570009	969.610776	-409.575084	372.695502	946.593985	-297.695373	315.349449	871.597336	-432.972721	291.864002	787.307622	-430.791981	228.227943	725.834198	-435.359461	320.524965	770.910908	-411.848021	172.450884	606.339757	-436.607158	101.825724	582.559754	-397.365607	377.798465	481.454225	-402.805823	267.279124	486.806474	-465.845709	-265.416954	891.881711	-285.520919	-53.509379	79.377312	-474.757288	-53.472528	79.296124	-77.162903	
1503	7.5150	489.350058	1271.586677	-177.248299	486.303222	1246.968892	-429.280928	462.991607	1342.452536	-312.222031	402.442560	1192.229243	-295.787724	504.905034	1103.537113	49.551480	661.974596	956.547935	-50.299238	516.172765	1088.199220	-671.381725	662.179101	970.801580	-495.944262	-121.461946	1187.683435	-259.746670	4.918983	1202.624811	-409.137445	39.248945	1199.423105	-128.139827	51.252864	1151.714799	-372.739698	76.553702	1136.732641	-158.902070	-82.826816	1234.838783	-218.533403	-91.142325	1241.416193	-302.506329	-22.754380	1060.108337	-104.079637	-39.659388	1122.384598	-440.549345	46.326148	958.540930	-92.239877	105.453730	891.952859	-94.066541	122.188209	805.680364	-99.987683	136.850653	908.326086	-105.234136	191.637491	673.209245	-120.857040	129.633063	584.109138	-91.552819	121.241819	496.257981	-103.069260	74.098197	424.568067	-105.643709	150.062808	488.834614	-127.215489	38.316756	292.549800	-110.944524	-35.091819	282.117477	-159.558050	234.051735	156.858927	-155.659444	131.259504	171.508770	-91.159986	84.094301	1064.610181	-450.715504	170.339375	1070.014661	-444.681351	177.528579	1100.685545	-423.183232	250.083051	1027.371009	-445.977721	382.249461	963.278897	-410.594188	369.851510	939.905151	-299.194397	312.746471	863.605556	-433.875158	290.973122	778.993057	-432.180132	228.458860	716.329780	-436.745340	319.827242	762.998537	-412.926397	174.733436	595.768197	-437.444780	104.806778	569.070401	-398.093133	385.444091	481.958006	-403.274125	274.766885	481.258842	-466.554847	-265.565988	891.932697	-285.650024	-53.508446	79.350134	-474.805332	-53.465738	79.279731	-77.203615	
